<svg width="31" height="30" viewBox="0 0 31 30" fill="none" xmlns="http://www.w3.org/2000/svg">
<path d="M15.5 2.8125C13.0895 2.8125 10.7332 3.52728 8.72899 4.86646C6.72477 6.20564 5.16267 8.10907 4.24022 10.336C3.31778 12.563 3.07643 15.0135 3.54668 17.3777C4.01694 19.7418 5.17769 21.9134 6.88214 23.6179C8.58659 25.3223 10.7582 26.4831 13.1223 26.9533C15.4865 27.4236 17.937 27.1822 20.164 26.2598C22.3909 25.3373 24.2944 23.7752 25.6335 21.771C26.9727 19.7668 27.6875 17.4105 27.6875 15C27.6841 11.7687 26.399 8.67076 24.1141 6.3859C21.8292 4.10104 18.7313 2.81591 15.5 2.8125ZM16.4375 25.2691V17.8125H19.25C19.4986 17.8125 19.7371 17.7137 19.9129 17.5379C20.0887 17.3621 20.1875 17.1236 20.1875 16.875C20.1875 16.6264 20.0887 16.3879 19.9129 16.2121C19.7371 16.0363 19.4986 15.9375 19.25 15.9375H16.4375V13.125C16.4375 12.6277 16.635 12.1508 16.9867 11.7992C17.3383 11.4475 17.8152 11.25 18.3125 11.25H20.1875C20.4361 11.25 20.6746 11.1512 20.8504 10.9754C21.0262 10.7996 21.125 10.5611 21.125 10.3125C21.125 10.0639 21.0262 9.8254 20.8504 9.64959C20.6746 9.47377 20.4361 9.375 20.1875 9.375H18.3125C17.3179 9.375 16.3641 9.77009 15.6609 10.4733C14.9576 11.1766 14.5625 12.1304 14.5625 13.125V15.9375H11.75C11.5014 15.9375 11.2629 16.0363 11.0871 16.2121C10.9113 16.3879 10.8125 16.6264 10.8125 16.875C10.8125 17.1236 10.9113 17.3621 11.0871 17.5379C11.2629 17.7137 11.5014 17.8125 11.75 17.8125H14.5625V25.2691C11.9197 25.0279 9.4716 23.7771 7.72747 21.7769C5.98334 19.7767 5.07743 17.1812 5.19819 14.5301C5.31894 11.879 6.45705 9.37659 8.3758 7.54325C10.2945 5.70991 12.8462 4.68684 15.5 4.68684C18.1538 4.68684 20.7055 5.70991 22.6242 7.54325C24.543 9.37659 25.6811 11.879 25.8018 14.5301C25.9226 17.1812 25.0167 19.7767 23.2725 21.7769C21.5284 23.7771 19.0803 25.0279 16.4375 25.2691Z" fill="white"/>
</svg>
