<svg width="160" height="160" viewBox="0 0 160 160" fill="none" xmlns="http://www.w3.org/2000/svg">
<g filter="url(#filter0_b_1_234)">
<rect width="159.333" height="160" rx="79.6667" fill="white" fill-opacity="0.14"/>
</g>
<path d="M77.9821 65.6636L73.4308 53.81C73.3364 53.5847 73.0116 53.585 72.9178 53.8105L68.3247 65.6636M69.7572 63.1021H76.5729M84.2227 53.6412V65.6636M88.2361 38.2579H64.0353C60.7992 38.2579 58.1759 40.8812 58.1759 44.1173V75.1875C58.1759 78.4235 60.7992 81.0469 64.0353 81.0469H89.5381C92.7693 81.0469 95.3896 78.4314 95.3975 75.202M95.3975 65.4364V47.0957M67.3127 73.1013H85.1369M67.3127 46.2657H85.8069M92.8364 36.0372C93.9062 38.6713 96.0334 40.7579 98.7189 41.8071C100.192 42.3829 100.192 44.4289 98.7189 45.0047C96.0334 46.0539 93.9061 48.1405 92.8364 50.7746C92.2494 52.2201 90.1635 52.2201 89.5765 50.7746C88.5068 48.1405 86.3795 46.0539 83.6941 45.0047C82.2204 44.4289 82.2204 42.3829 83.6941 41.8071C86.3795 40.7579 88.5069 38.6713 89.5765 36.0372C90.1635 34.5918 92.2494 34.5918 92.8364 36.0372Z" stroke="white" stroke-width="1.5" stroke-miterlimit="10" stroke-linecap="round" stroke-linejoin="round"/>
<path d="M53.2867 103.728H48.6307L47.8307 106H45.9267L49.9107 94.864H52.0227L56.0067 106H54.0867L53.2867 103.728ZM52.7747 102.24L50.9667 97.072L49.1427 102.24H52.7747ZM59.243 94.88V106H57.419V94.88H59.243ZM68.786 94.88C69.97 94.88 71.0046 95.1093 71.89 95.568C72.786 96.016 73.474 96.6667 73.954 97.52C74.4446 98.3627 74.69 99.3493 74.69 100.48C74.69 101.611 74.4446 102.592 73.954 103.424C73.474 104.256 72.786 104.896 71.89 105.344C71.0046 105.781 69.97 106 68.786 106H65.154V94.88H68.786ZM68.786 104.512C70.0873 104.512 71.0846 104.16 71.778 103.456C72.4713 102.752 72.818 101.76 72.818 100.48C72.818 99.1893 72.4713 98.1813 71.778 97.456C71.0846 96.7307 70.0873 96.368 68.786 96.368H66.978V104.512H68.786ZM78.0017 98.464C78.2684 98.016 78.6204 97.6693 79.0577 97.424C79.5057 97.168 80.0337 97.04 80.6417 97.04V98.928H80.1777C79.463 98.928 78.919 99.1093 78.5457 99.472C78.183 99.8347 78.0017 100.464 78.0017 101.36V106H76.1777V97.184H78.0017V98.464ZM82.9263 96.016C82.5957 96.016 82.3183 95.904 82.0943 95.68C81.8703 95.456 81.7583 95.1787 81.7583 94.848C81.7583 94.5173 81.8703 94.24 82.0943 94.016C82.3183 93.792 82.5957 93.68 82.9263 93.68C83.2463 93.68 83.5183 93.792 83.7423 94.016C83.9663 94.24 84.0783 94.5173 84.0783 94.848C84.0783 95.1787 83.9663 95.456 83.7423 95.68C83.5183 95.904 83.2463 96.016 82.9263 96.016ZM83.8223 97.184V106H81.9983V97.184H83.8223ZM89.3051 104.368L91.8011 97.184H93.7371L90.3771 106H88.2011L84.8571 97.184H86.8091L89.3051 104.368ZM102.876 101.376C102.876 101.707 102.854 102.005 102.812 102.272H96.0758C96.1292 102.976 96.3905 103.541 96.8598 103.968C97.3292 104.395 97.9052 104.608 98.5878 104.608C99.5692 104.608 100.262 104.197 100.668 103.376H102.636C102.369 104.187 101.884 104.853 101.18 105.376C100.486 105.888 99.6225 106.144 98.5878 106.144C97.7452 106.144 96.9878 105.957 96.3158 105.584C95.6545 105.2 95.1318 104.667 94.7478 103.984C94.3745 103.291 94.1878 102.491 94.1878 101.584C94.1878 100.677 94.3692 99.8827 94.7318 99.2C95.1052 98.5067 95.6225 97.9733 96.2838 97.6C96.9558 97.2267 97.7238 97.04 98.5878 97.04C99.4198 97.04 100.161 97.2213 100.812 97.584C101.462 97.9467 101.969 98.4587 102.332 99.12C102.694 99.7707 102.876 100.523 102.876 101.376ZM100.972 100.8C100.961 100.128 100.721 99.5893 100.252 99.184C99.7825 98.7787 99.2012 98.576 98.5078 98.576C97.8785 98.576 97.3398 98.7787 96.8918 99.184C96.4438 99.5787 96.1772 100.117 96.0918 100.8H100.972ZM108.799 97.04C109.492 97.04 110.111 97.184 110.655 97.472C111.21 97.76 111.642 98.1867 111.951 98.752C112.26 99.3173 112.415 100 112.415 100.8V106H110.607V101.072C110.607 100.283 110.41 99.68 110.015 99.264C109.62 98.8373 109.082 98.624 108.399 98.624C107.716 98.624 107.172 98.8373 106.767 99.264C106.372 99.68 106.175 100.283 106.175 101.072V106H104.351V97.184H106.175V98.192C106.473 97.8293 106.852 97.5467 107.311 97.344C107.78 97.1413 108.276 97.04 108.799 97.04ZM37.3167 114.352V117.616H41.1567V119.104H37.3167V122.512H41.6367V124H35.4927V112.864H41.6367V114.352H37.3167ZM46.9713 122.368L49.4673 115.184H51.4033L48.0433 124H45.8673L42.5233 115.184H44.4753L46.9713 122.368ZM51.8541 119.552C51.8541 118.667 52.0354 117.883 52.3981 117.2C52.7714 116.517 53.2727 115.989 53.9021 115.616C54.5421 115.232 55.2461 115.04 56.0141 115.04C56.7074 115.04 57.3101 115.179 57.8221 115.456C58.3447 115.723 58.7607 116.059 59.0701 116.464V115.184H60.9101V124H59.0701V122.688C58.7607 123.104 58.3394 123.451 57.8061 123.728C57.2727 124.005 56.6647 124.144 55.9821 124.144C55.2247 124.144 54.5314 123.952 53.9021 123.568C53.2727 123.173 52.7714 122.629 52.3981 121.936C52.0354 121.232 51.8541 120.437 51.8541 119.552ZM59.0701 119.584C59.0701 118.976 58.9421 118.448 58.6861 118C58.4407 117.552 58.1154 117.211 57.7101 116.976C57.3047 116.741 56.8674 116.624 56.3981 116.624C55.9287 116.624 55.4914 116.741 55.0861 116.976C54.6807 117.2 54.3501 117.536 54.0941 117.984C53.8487 118.421 53.7261 118.944 53.7261 119.552C53.7261 120.16 53.8487 120.693 54.0941 121.152C54.3501 121.611 54.6807 121.963 55.0861 122.208C55.5021 122.443 55.9394 122.56 56.3981 122.56C56.8674 122.56 57.3047 122.443 57.7101 122.208C58.1154 121.973 58.4407 121.632 58.6861 121.184C58.9421 120.725 59.0701 120.192 59.0701 119.584ZM64.8098 112.16V124H62.9858V112.16H64.8098ZM74.8686 115.184V124H73.0446V122.96C72.7566 123.323 72.3779 123.611 71.9086 123.824C71.4499 124.027 70.9592 124.128 70.4366 124.128C69.7432 124.128 69.1192 123.984 68.5646 123.696C68.0206 123.408 67.5886 122.981 67.2686 122.416C66.9592 121.851 66.8046 121.168 66.8046 120.368V115.184H68.6126V120.096C68.6126 120.885 68.8099 121.493 69.2046 121.92C69.5992 122.336 70.1379 122.544 70.8206 122.544C71.5032 122.544 72.0419 122.336 72.4366 121.92C72.8419 121.493 73.0446 120.885 73.0446 120.096V115.184H74.8686ZM76.3472 119.552C76.3472 118.667 76.5285 117.883 76.8912 117.2C77.2645 116.517 77.7659 115.989 78.3952 115.616C79.0352 115.232 79.7392 115.04 80.5072 115.04C81.2005 115.04 81.8032 115.179 82.3152 115.456C82.8379 115.723 83.2539 116.059 83.5632 116.464V115.184H85.4032V124H83.5632V122.688C83.2539 123.104 82.8325 123.451 82.2992 123.728C81.7659 124.005 81.1579 124.144 80.4752 124.144C79.7179 124.144 79.0245 123.952 78.3952 123.568C77.7659 123.173 77.2645 122.629 76.8912 121.936C76.5285 121.232 76.3472 120.437 76.3472 119.552ZM83.5632 119.584C83.5632 118.976 83.4352 118.448 83.1792 118C82.9339 117.552 82.6085 117.211 82.2032 116.976C81.7979 116.741 81.3605 116.624 80.8912 116.624C80.4219 116.624 79.9845 116.741 79.5792 116.976C79.1739 117.2 78.8432 117.536 78.5872 117.984C78.3419 118.421 78.2192 118.944 78.2192 119.552C78.2192 120.16 78.3419 120.693 78.5872 121.152C78.8432 121.611 79.1739 121.963 79.5792 122.208C79.9952 122.443 80.4325 122.56 80.8912 122.56C81.3605 122.56 81.7979 122.443 82.2032 122.208C82.6085 121.973 82.9339 121.632 83.1792 121.184C83.4352 120.725 83.5632 120.192 83.5632 119.584ZM89.607 116.672V121.552C89.607 121.883 89.6816 122.123 89.831 122.272C89.991 122.411 90.2576 122.48 90.631 122.48H91.751V124H90.311C89.4896 124 88.8603 123.808 88.423 123.424C87.9856 123.04 87.767 122.416 87.767 121.552V116.672H86.727V115.184H87.767V112.992H89.607V115.184H91.751V116.672H89.607ZM94.0401 114.016C93.7094 114.016 93.4321 113.904 93.2081 113.68C92.9841 113.456 92.8721 113.179 92.8721 112.848C92.8721 112.517 92.9841 112.24 93.2081 112.016C93.4321 111.792 93.7094 111.68 94.0401 111.68C94.3601 111.68 94.6321 111.792 94.8561 112.016C95.0801 112.24 95.1921 112.517 95.1921 112.848C95.1921 113.179 95.0801 113.456 94.8561 113.68C94.6321 113.904 94.3601 114.016 94.0401 114.016ZM94.9361 115.184V124H93.1121V115.184H94.9361ZM100.835 124.144C100.003 124.144 99.2508 123.957 98.5788 123.584C97.9068 123.2 97.3788 122.667 96.9948 121.984C96.6108 121.291 96.4188 120.491 96.4188 119.584C96.4188 118.688 96.6162 117.893 97.0108 117.2C97.4055 116.507 97.9442 115.973 98.6268 115.6C99.3095 115.227 100.072 115.04 100.915 115.04C101.757 115.04 102.52 115.227 103.203 115.6C103.885 115.973 104.424 116.507 104.819 117.2C105.213 117.893 105.411 118.688 105.411 119.584C105.411 120.48 105.208 121.275 104.803 121.968C104.397 122.661 103.843 123.2 103.139 123.584C102.445 123.957 101.677 124.144 100.835 124.144ZM100.835 122.56C101.304 122.56 101.741 122.448 102.147 122.224C102.563 122 102.899 121.664 103.155 121.216C103.411 120.768 103.539 120.224 103.539 119.584C103.539 118.944 103.416 118.405 103.171 117.968C102.925 117.52 102.6 117.184 102.195 116.96C101.789 116.736 101.352 116.624 100.883 116.624C100.413 116.624 99.9762 116.736 99.5708 116.96C99.1762 117.184 98.8615 117.52 98.6268 117.968C98.3922 118.405 98.2748 118.944 98.2748 119.584C98.2748 120.533 98.5148 121.269 98.9948 121.792C99.4855 122.304 100.099 122.56 100.835 122.56ZM111.342 115.04C112.035 115.04 112.654 115.184 113.198 115.472C113.753 115.76 114.185 116.187 114.494 116.752C114.803 117.317 114.958 118 114.958 118.8V124H113.15V119.072C113.15 118.283 112.953 117.68 112.558 117.264C112.163 116.837 111.625 116.624 110.942 116.624C110.259 116.624 109.715 116.837 109.31 117.264C108.915 117.68 108.718 118.283 108.718 119.072V124H106.894V115.184H108.718V116.192C109.017 115.829 109.395 115.547 109.854 115.344C110.323 115.141 110.819 115.04 111.342 115.04ZM120.165 124.144C119.471 124.144 118.847 124.021 118.293 123.776C117.749 123.52 117.317 123.179 116.997 122.752C116.677 122.315 116.506 121.829 116.485 121.296H118.373C118.405 121.669 118.581 121.984 118.901 122.24C119.231 122.485 119.642 122.608 120.133 122.608C120.645 122.608 121.039 122.512 121.317 122.32C121.605 122.117 121.749 121.861 121.749 121.552C121.749 121.221 121.589 120.976 121.269 120.816C120.959 120.656 120.463 120.48 119.781 120.288C119.119 120.107 118.581 119.931 118.165 119.76C117.749 119.589 117.386 119.328 117.077 118.976C116.778 118.624 116.629 118.16 116.629 117.584C116.629 117.115 116.767 116.688 117.045 116.304C117.322 115.909 117.717 115.6 118.229 115.376C118.751 115.152 119.349 115.04 120.021 115.04C121.023 115.04 121.829 115.296 122.437 115.808C123.055 116.309 123.386 116.997 123.429 117.872H121.605C121.573 117.477 121.413 117.163 121.125 116.928C120.837 116.693 120.447 116.576 119.957 116.576C119.477 116.576 119.109 116.667 118.853 116.848C118.597 117.029 118.469 117.269 118.469 117.568C118.469 117.803 118.554 118 118.725 118.16C118.895 118.32 119.103 118.448 119.349 118.544C119.594 118.629 119.957 118.741 120.437 118.88C121.077 119.051 121.599 119.227 122.005 119.408C122.421 119.579 122.778 119.835 123.077 120.176C123.375 120.517 123.53 120.971 123.541 121.536C123.541 122.037 123.402 122.485 123.125 122.88C122.847 123.275 122.453 123.584 121.941 123.808C121.439 124.032 120.847 124.144 120.165 124.144Z" fill="white"/>
<defs>
<filter id="filter0_b_1_234" x="-16" y="-16" width="191.333" height="192" filterUnits="userSpaceOnUse" color-interpolation-filters="sRGB">
<feFlood flood-opacity="0" result="BackgroundImageFix"/>
<feGaussianBlur in="BackgroundImageFix" stdDeviation="8"/>
<feComposite in2="SourceAlpha" operator="in" result="effect1_backgroundBlur_1_234"/>
<feBlend mode="normal" in="SourceGraphic" in2="effect1_backgroundBlur_1_234" result="shape"/>
</filter>
</defs>
</svg>
