<svg width="160" height="160" viewBox="0 0 160 160" fill="none" xmlns="http://www.w3.org/2000/svg">
<g filter="url(#filter0_b_1_203)">
<rect x="-0.00012207" width="159.333" height="160" rx="79.6667" fill="white" fill-opacity="0.14"/>
</g>
<path d="M78.9987 58.4697C76.0333 58.4697 73.6294 56.0658 73.6294 53.1005C73.6294 50.1351 76.0333 47.7312 78.9987 47.7312C81.964 47.7312 84.3679 50.1351 84.3679 53.1005C84.3679 56.0658 81.964 58.4697 78.9987 58.4697ZM78.9987 58.4697C75.0968 58.4697 71.9338 61.6327 71.9338 65.5344H86.0636C86.0635 61.6327 82.9005 58.4697 78.9987 58.4697ZM94.1925 66.2851C102.393 56.1212 104.573 44.2869 98.8073 38.3724C92.3064 31.7045 78.1677 35.0866 67.2277 45.9266C56.2877 56.7667 52.6891 70.9597 59.1901 77.6277C65.0193 83.6066 76.9889 81.5039 87.2874 73.1907M59.1901 38.3724C65.691 31.7045 79.8296 35.0866 90.7697 45.9266C101.71 56.7667 105.308 70.9597 98.8073 77.6277C92.3063 84.2957 78.1677 80.9135 67.2277 70.0735C56.2876 59.2335 52.6891 45.0404 59.1901 38.3724Z" stroke="white" stroke-width="1.5" stroke-miterlimit="10" stroke-linecap="round" stroke-linejoin="round"/>
<path d="M38.5761 98.192C38.5761 98.7573 38.4428 99.2907 38.1761 99.792C37.9094 100.293 37.4828 100.704 36.8961 101.024C36.3094 101.333 35.5574 101.488 34.6401 101.488H32.6241V106H30.8001V94.88H34.6401C35.4934 94.88 36.2134 95.0293 36.8001 95.328C37.3974 95.616 37.8401 96.0107 38.1281 96.512C38.4268 97.0133 38.5761 97.5733 38.5761 98.192ZM34.6401 100C35.3334 100 35.8508 99.8453 36.1921 99.536C36.5334 99.216 36.7041 98.768 36.7041 98.192C36.7041 96.976 36.0161 96.368 34.6401 96.368H32.6241V100H34.6401ZM48.0757 101.376C48.0757 101.707 48.0544 102.005 48.0117 102.272H41.2757C41.329 102.976 41.5904 103.541 42.0597 103.968C42.529 104.395 43.105 104.608 43.7877 104.608C44.769 104.608 45.4624 104.197 45.8677 103.376H47.8357C47.569 104.187 47.0837 104.853 46.3797 105.376C45.6864 105.888 44.8224 106.144 43.7877 106.144C42.945 106.144 42.1877 105.957 41.5157 105.584C40.8544 105.2 40.3317 104.667 39.9477 103.984C39.5744 103.291 39.3877 102.491 39.3877 101.584C39.3877 100.677 39.569 99.8827 39.9317 99.2C40.305 98.5067 40.8224 97.9733 41.4837 97.6C42.1557 97.2267 42.9237 97.04 43.7877 97.04C44.6197 97.04 45.361 97.2213 46.0117 97.584C46.6624 97.9467 47.169 98.4587 47.5317 99.12C47.8944 99.7707 48.0757 100.523 48.0757 101.376ZM46.1717 100.8C46.161 100.128 45.921 99.5893 45.4517 99.184C44.9824 98.7787 44.401 98.576 43.7077 98.576C43.0784 98.576 42.5397 98.7787 42.0917 99.184C41.6437 99.5787 41.377 100.117 41.2917 100.8H46.1717ZM51.3747 98.464C51.6414 98.016 51.9934 97.6693 52.4307 97.424C52.8787 97.168 53.4067 97.04 54.0147 97.04V98.928H53.5507C52.836 98.928 52.292 99.1093 51.9187 99.472C51.556 99.8347 51.3747 100.464 51.3747 101.36V106H49.5507V97.184H51.3747V98.464ZM58.5713 106.144C57.878 106.144 57.254 106.021 56.6993 105.776C56.1553 105.52 55.7233 105.179 55.4033 104.752C55.0833 104.315 54.9127 103.829 54.8913 103.296H56.7793C56.8113 103.669 56.9873 103.984 57.3073 104.24C57.638 104.485 58.0487 104.608 58.5393 104.608C59.0513 104.608 59.446 104.512 59.7233 104.32C60.0113 104.117 60.1553 103.861 60.1553 103.552C60.1553 103.221 59.9953 102.976 59.6753 102.816C59.366 102.656 58.87 102.48 58.1873 102.288C57.526 102.107 56.9873 101.931 56.5713 101.76C56.1553 101.589 55.7927 101.328 55.4833 100.976C55.1847 100.624 55.0353 100.16 55.0353 99.584C55.0353 99.1147 55.174 98.688 55.4513 98.304C55.7287 97.9093 56.1233 97.6 56.6353 97.376C57.158 97.152 57.7553 97.04 58.4273 97.04C59.43 97.04 60.2353 97.296 60.8433 97.808C61.462 98.3093 61.7927 98.9973 61.8353 99.872H60.0113C59.9793 99.4773 59.8193 99.1627 59.5313 98.928C59.2433 98.6933 58.854 98.576 58.3633 98.576C57.8833 98.576 57.5153 98.6667 57.2593 98.848C57.0033 99.0293 56.8753 99.2693 56.8753 99.568C56.8753 99.8027 56.9607 100 57.1313 100.16C57.302 100.32 57.51 100.448 57.7553 100.544C58.0007 100.629 58.3633 100.741 58.8433 100.88C59.4833 101.051 60.006 101.227 60.4113 101.408C60.8273 101.579 61.1847 101.835 61.4833 102.176C61.782 102.517 61.9367 102.971 61.9473 103.536C61.9473 104.037 61.8087 104.485 61.5313 104.88C61.254 105.275 60.8593 105.584 60.3473 105.808C59.846 106.032 59.254 106.144 58.5713 106.144ZM67.4222 106.144C66.5902 106.144 65.8382 105.957 65.1662 105.584C64.4942 105.2 63.9662 104.667 63.5822 103.984C63.1982 103.291 63.0062 102.491 63.0062 101.584C63.0062 100.688 63.2035 99.8933 63.5982 99.2C63.9929 98.5067 64.5315 97.9733 65.2142 97.6C65.8969 97.2267 66.6595 97.04 67.5022 97.04C68.3449 97.04 69.1075 97.2267 69.7902 97.6C70.4729 97.9733 71.0115 98.5067 71.4062 99.2C71.8009 99.8933 71.9982 100.688 71.9982 101.584C71.9982 102.48 71.7955 103.275 71.3902 103.968C70.9849 104.661 70.4302 105.2 69.7262 105.584C69.0329 105.957 68.2649 106.144 67.4222 106.144ZM67.4222 104.56C67.8915 104.56 68.3289 104.448 68.7342 104.224C69.1502 104 69.4862 103.664 69.7422 103.216C69.9982 102.768 70.1262 102.224 70.1262 101.584C70.1262 100.944 70.0035 100.405 69.7582 99.968C69.5129 99.52 69.1875 99.184 68.7822 98.96C68.3769 98.736 67.9395 98.624 67.4702 98.624C67.0009 98.624 66.5635 98.736 66.1582 98.96C65.7635 99.184 65.4489 99.52 65.2142 99.968C64.9795 100.405 64.8622 100.944 64.8622 101.584C64.8622 102.533 65.1022 103.269 65.5822 103.792C66.0729 104.304 66.6862 104.56 67.4222 104.56ZM77.9293 97.04C78.6227 97.04 79.2413 97.184 79.7853 97.472C80.34 97.76 80.772 98.1867 81.0813 98.752C81.3907 99.3173 81.5453 100 81.5453 100.8V106H79.7373V101.072C79.7373 100.283 79.54 99.68 79.1453 99.264C78.7507 98.8373 78.212 98.624 77.5293 98.624C76.8467 98.624 76.3027 98.8373 75.8973 99.264C75.5027 99.68 75.3053 100.283 75.3053 101.072V106H73.4813V97.184H75.3053V98.192C75.604 97.8293 75.9827 97.5467 76.4413 97.344C76.9107 97.1413 77.4067 97.04 77.9293 97.04ZM82.944 101.552C82.944 100.667 83.1253 99.8827 83.488 99.2C83.8613 98.5173 84.3626 97.9893 84.992 97.616C85.632 97.232 86.336 97.04 87.104 97.04C87.7973 97.04 88.4 97.1787 88.912 97.456C89.4346 97.7227 89.8506 98.0587 90.16 98.464V97.184H92V106H90.16V104.688C89.8506 105.104 89.4293 105.451 88.896 105.728C88.3626 106.005 87.7546 106.144 87.072 106.144C86.3146 106.144 85.6213 105.952 84.992 105.568C84.3626 105.173 83.8613 104.629 83.488 103.936C83.1253 103.232 82.944 102.437 82.944 101.552ZM90.16 101.584C90.16 100.976 90.032 100.448 89.776 100C89.5306 99.552 89.2053 99.2107 88.8 98.976C88.3946 98.7413 87.9573 98.624 87.488 98.624C87.0186 98.624 86.5813 98.7413 86.176 98.976C85.7706 99.2 85.44 99.536 85.184 99.984C84.9386 100.421 84.816 100.944 84.816 101.552C84.816 102.16 84.9386 102.693 85.184 103.152C85.44 103.611 85.7706 103.963 86.176 104.208C86.592 104.443 87.0293 104.56 87.488 104.56C87.9573 104.56 88.3946 104.443 88.8 104.208C89.2053 103.973 89.5306 103.632 89.776 103.184C90.032 102.725 90.16 102.192 90.16 101.584ZM95.8997 94.16V106H94.0757V94.16H95.8997ZM98.9025 96.016C98.5718 96.016 98.2945 95.904 98.0705 95.68C97.8465 95.456 97.7345 95.1787 97.7345 94.848C97.7345 94.5173 97.8465 94.24 98.0705 94.016C98.2945 93.792 98.5718 93.68 98.9025 93.68C99.2225 93.68 99.4945 93.792 99.7185 94.016C99.9425 94.24 100.054 94.5173 100.054 94.848C100.054 95.1787 99.9425 95.456 99.7185 95.68C99.4945 95.904 99.2225 96.016 98.9025 96.016ZM99.7985 97.184V106H97.9745V97.184H99.7985ZM105.073 106.144C104.38 106.144 103.756 106.021 103.201 105.776C102.657 105.52 102.225 105.179 101.905 104.752C101.585 104.315 101.415 103.829 101.393 103.296H103.281C103.313 103.669 103.489 103.984 103.809 104.24C104.14 104.485 104.551 104.608 105.041 104.608C105.553 104.608 105.948 104.512 106.225 104.32C106.513 104.117 106.657 103.861 106.657 103.552C106.657 103.221 106.497 102.976 106.177 102.816C105.868 102.656 105.372 102.48 104.689 102.288C104.028 102.107 103.489 101.931 103.073 101.76C102.657 101.589 102.295 101.328 101.985 100.976C101.687 100.624 101.537 100.16 101.537 99.584C101.537 99.1147 101.676 98.688 101.953 98.304C102.231 97.9093 102.625 97.6 103.137 97.376C103.66 97.152 104.257 97.04 104.929 97.04C105.932 97.04 106.737 97.296 107.345 97.808C107.964 98.3093 108.295 98.9973 108.337 99.872H106.513C106.481 99.4773 106.321 99.1627 106.033 98.928C105.745 98.6933 105.356 98.576 104.865 98.576C104.385 98.576 104.017 98.6667 103.761 98.848C103.505 99.0293 103.377 99.2693 103.377 99.568C103.377 99.8027 103.463 100 103.633 100.16C103.804 100.32 104.012 100.448 104.257 100.544C104.503 100.629 104.865 100.741 105.345 100.88C105.985 101.051 106.508 101.227 106.913 101.408C107.329 101.579 107.687 101.835 107.985 102.176C108.284 102.517 108.439 102.971 108.449 103.536C108.449 104.037 108.311 104.485 108.033 104.88C107.756 105.275 107.361 105.584 106.849 105.808C106.348 106.032 105.756 106.144 105.073 106.144ZM118.18 101.376C118.18 101.707 118.159 102.005 118.116 102.272H111.38C111.433 102.976 111.695 103.541 112.164 103.968C112.633 104.395 113.209 104.608 113.892 104.608C114.873 104.608 115.567 104.197 115.972 103.376H117.94C117.673 104.187 117.188 104.853 116.484 105.376C115.791 105.888 114.927 106.144 113.892 106.144C113.049 106.144 112.292 105.957 111.62 105.584C110.959 105.2 110.436 104.667 110.052 103.984C109.679 103.291 109.492 102.491 109.492 101.584C109.492 100.677 109.673 99.8827 110.036 99.2C110.409 98.5067 110.927 97.9733 111.588 97.6C112.26 97.2267 113.028 97.04 113.892 97.04C114.724 97.04 115.465 97.2213 116.116 97.584C116.767 97.9467 117.273 98.4587 117.636 99.12C117.999 99.7707 118.18 100.523 118.18 101.376ZM116.276 100.8C116.265 100.128 116.025 99.5893 115.556 99.184C115.087 98.7787 114.505 98.576 113.812 98.576C113.183 98.576 112.644 98.7787 112.196 99.184C111.748 99.5787 111.481 100.117 111.396 100.8H116.276ZM119.047 101.552C119.047 100.667 119.228 99.8827 119.591 99.2C119.964 98.5173 120.466 97.9893 121.095 97.616C121.735 97.232 122.444 97.04 123.223 97.04C123.799 97.04 124.364 97.168 124.919 97.424C125.484 97.6693 125.932 98 126.263 98.416V94.16H128.103V106H126.263V104.672C125.964 105.099 125.548 105.451 125.015 105.728C124.492 106.005 123.89 106.144 123.207 106.144C122.439 106.144 121.735 105.952 121.095 105.568C120.466 105.173 119.964 104.629 119.591 103.936C119.228 103.232 119.047 102.437 119.047 101.552ZM126.263 101.584C126.263 100.976 126.135 100.448 125.879 100C125.634 99.552 125.308 99.2107 124.903 98.976C124.498 98.7413 124.06 98.624 123.591 98.624C123.122 98.624 122.684 98.7413 122.279 98.976C121.874 99.2 121.543 99.536 121.287 99.984C121.042 100.421 120.919 100.944 120.919 101.552C120.919 102.16 121.042 102.693 121.287 103.152C121.543 103.611 121.874 103.963 122.279 104.208C122.695 104.443 123.132 104.56 123.591 104.56C124.06 104.56 124.498 104.443 124.903 104.208C125.308 103.973 125.634 103.632 125.879 103.184C126.135 102.725 126.263 102.192 126.263 101.584ZM58.5052 112.88V124H56.6812V116.384L53.2892 124H52.0252L48.6172 116.384V124H46.7932V112.88H48.7612L52.6652 121.6L56.5532 112.88H58.5052ZM59.9746 119.552C59.9746 118.667 60.1559 117.883 60.5186 117.2C60.8919 116.517 61.3933 115.989 62.0226 115.616C62.6626 115.232 63.3666 115.04 64.1346 115.04C64.8279 115.04 65.4306 115.179 65.9426 115.456C66.4653 115.723 66.8813 116.059 67.1906 116.464V115.184H69.0306V124H67.1906V122.688C66.8813 123.104 66.4599 123.451 65.9266 123.728C65.3933 124.005 64.7853 124.144 64.1026 124.144C63.3453 124.144 62.6519 123.952 62.0226 123.568C61.3933 123.173 60.8919 122.629 60.5186 121.936C60.1559 121.232 59.9746 120.437 59.9746 119.552ZM67.1906 119.584C67.1906 118.976 67.0626 118.448 66.8066 118C66.5613 117.552 66.2359 117.211 65.8306 116.976C65.4253 116.741 64.9879 116.624 64.5186 116.624C64.0493 116.624 63.6119 116.741 63.2066 116.976C62.8013 117.2 62.4706 117.536 62.2146 117.984C61.9693 118.421 61.8466 118.944 61.8466 119.552C61.8466 120.16 61.9693 120.693 62.2146 121.152C62.4706 121.611 62.8013 121.963 63.2066 122.208C63.6226 122.443 64.0599 122.56 64.5186 122.56C64.9879 122.56 65.4253 122.443 65.8306 122.208C66.2359 121.973 66.5613 121.632 66.8066 121.184C67.0626 120.725 67.1906 120.192 67.1906 119.584ZM73.2343 116.672V121.552C73.2343 121.883 73.309 122.123 73.4583 122.272C73.6183 122.411 73.885 122.48 74.2583 122.48H75.3783V124H73.9383C73.117 124 72.4877 123.808 72.0503 123.424C71.613 123.04 71.3943 122.416 71.3943 121.552V116.672H70.3543V115.184H71.3943V112.992H73.2343V115.184H75.3783V116.672H73.2343ZM76.1315 119.584C76.1315 118.677 76.3128 117.883 76.6755 117.2C77.0488 116.507 77.5608 115.973 78.2115 115.6C78.8621 115.227 79.6088 115.04 80.4515 115.04C81.5181 115.04 82.3981 115.296 83.0915 115.808C83.7955 116.309 84.2701 117.029 84.5155 117.968H82.5475C82.3875 117.531 82.1315 117.189 81.7795 116.944C81.4275 116.699 80.9848 116.576 80.4515 116.576C79.7048 116.576 79.1075 116.843 78.6595 117.376C78.2221 117.899 78.0035 118.635 78.0035 119.584C78.0035 120.533 78.2221 121.275 78.6595 121.808C79.1075 122.341 79.7048 122.608 80.4515 122.608C81.5075 122.608 82.2061 122.144 82.5475 121.216H84.5155C84.2595 122.112 83.7795 122.827 83.0755 123.36C82.3715 123.883 81.4968 124.144 80.4515 124.144C79.6088 124.144 78.8621 123.957 78.2115 123.584C77.5608 123.2 77.0488 122.667 76.6755 121.984C76.3128 121.291 76.1315 120.491 76.1315 119.584ZM90.5732 115.04C91.2452 115.04 91.8425 115.184 92.3652 115.472C92.8985 115.76 93.3145 116.187 93.6132 116.752C93.9225 117.317 94.0772 118 94.0772 118.8V124H92.2692V119.072C92.2692 118.283 92.0719 117.68 91.6772 117.264C91.2825 116.837 90.7439 116.624 90.0612 116.624C89.3785 116.624 88.8345 116.837 88.4292 117.264C88.0345 117.68 87.8372 118.283 87.8372 119.072V124H86.0132V112.16H87.8372V116.208C88.1465 115.835 88.5359 115.547 89.0052 115.344C89.4852 115.141 90.0079 115.04 90.5732 115.04ZM104.164 119.376C104.164 119.707 104.143 120.005 104.1 120.272H97.3638C97.4172 120.976 97.6785 121.541 98.1478 121.968C98.6172 122.395 99.1932 122.608 99.8758 122.608C100.857 122.608 101.551 122.197 101.956 121.376H103.924C103.657 122.187 103.172 122.853 102.468 123.376C101.775 123.888 100.911 124.144 99.8758 124.144C99.0332 124.144 98.2758 123.957 97.6038 123.584C96.9425 123.2 96.4198 122.667 96.0358 121.984C95.6625 121.291 95.4758 120.491 95.4758 119.584C95.4758 118.677 95.6572 117.883 96.0198 117.2C96.3932 116.507 96.9105 115.973 97.5718 115.6C98.2438 115.227 99.0118 115.04 99.8758 115.04C100.708 115.04 101.449 115.221 102.1 115.584C102.751 115.947 103.257 116.459 103.62 117.12C103.983 117.771 104.164 118.523 104.164 119.376ZM102.26 118.8C102.249 118.128 102.009 117.589 101.54 117.184C101.071 116.779 100.489 116.576 99.7958 116.576C99.1665 116.576 98.6278 116.779 98.1798 117.184C97.7318 117.579 97.4652 118.117 97.3798 118.8H102.26ZM108.839 124.144C108.146 124.144 107.522 124.021 106.967 123.776C106.423 123.52 105.991 123.179 105.671 122.752C105.351 122.315 105.18 121.829 105.159 121.296H107.047C107.079 121.669 107.255 121.984 107.575 122.24C107.906 122.485 108.316 122.608 108.807 122.608C109.319 122.608 109.714 122.512 109.991 122.32C110.279 122.117 110.423 121.861 110.423 121.552C110.423 121.221 110.263 120.976 109.943 120.816C109.634 120.656 109.138 120.48 108.455 120.288C107.794 120.107 107.255 119.931 106.839 119.76C106.423 119.589 106.06 119.328 105.751 118.976C105.452 118.624 105.303 118.16 105.303 117.584C105.303 117.115 105.442 116.688 105.719 116.304C105.996 115.909 106.391 115.6 106.903 115.376C107.426 115.152 108.023 115.04 108.695 115.04C109.698 115.04 110.503 115.296 111.111 115.808C111.73 116.309 112.06 116.997 112.103 117.872H110.279C110.247 117.477 110.087 117.163 109.799 116.928C109.511 116.693 109.122 116.576 108.631 116.576C108.151 116.576 107.783 116.667 107.527 116.848C107.271 117.029 107.143 117.269 107.143 117.568C107.143 117.803 107.228 118 107.399 118.16C107.57 118.32 107.778 118.448 108.023 118.544C108.268 118.629 108.631 118.741 109.111 118.88C109.751 119.051 110.274 119.227 110.679 119.408C111.095 119.579 111.452 119.835 111.751 120.176C112.05 120.517 112.204 120.971 112.215 121.536C112.215 122.037 112.076 122.485 111.799 122.88C111.522 123.275 111.127 123.584 110.615 123.808C110.114 124.032 109.522 124.144 108.839 124.144Z" fill="white"/>
<defs>
<filter id="filter0_b_1_203" x="-16.0001" y="-16" width="191.333" height="192" filterUnits="userSpaceOnUse" color-interpolation-filters="sRGB">
<feFlood flood-opacity="0" result="BackgroundImageFix"/>
<feGaussianBlur in="BackgroundImageFix" stdDeviation="8"/>
<feComposite in2="SourceAlpha" operator="in" result="effect1_backgroundBlur_1_203"/>
<feBlend mode="normal" in="SourceGraphic" in2="effect1_backgroundBlur_1_203" result="shape"/>
</filter>
</defs>
</svg>
