<svg width="160" height="160" viewBox="0 0 160 160" fill="none" xmlns="http://www.w3.org/2000/svg">
<g filter="url(#filter0_b_1_213)">
<rect width="159.333" height="160" rx="79.6667" fill="white" fill-opacity="0.14"/>
</g>
<mask id="mask0_1_213" style="mask-type:luminance" maskUnits="userSpaceOnUse" x="55" y="33" width="50" height="50">
<path d="M55 33H105V83H55V33Z" fill="white"/>
</mask>
<g mask="url(#mask0_1_213)">
<path d="M70.5762 52.7266C70.5762 49.4905 73.1995 46.8672 76.4355 46.8672C79.6716 46.8672 82.2949 49.4905 82.2949 52.7266C82.2949 55.9626 79.6716 58.5859 76.4355 58.5859C73.1995 58.5859 70.5762 55.9626 70.5762 52.7266Z" stroke="white" stroke-width="1.5" stroke-miterlimit="10" stroke-linecap="round" stroke-linejoin="round"/>
<path d="M84.9805 55.9589L82.1701 53.9337C82.2518 53.544 82.2952 53.1404 82.2952 52.7266C82.2952 52.2332 82.2336 51.7543 82.1187 51.2966L84.9805 49.111L84.1016 47.4862L80.7025 48.7128C79.9618 47.9258 79.0067 47.3432 77.9296 47.06L77.3147 43.6445H75.4593L74.9827 47.0491C73.8533 47.3373 72.855 47.9534 72.0956 48.7904L68.7515 47.7461L67.8906 49.4587L70.7288 51.4018C70.6303 51.8276 70.5765 52.2707 70.5765 52.7266C70.5765 53.2184 70.6379 53.6957 70.7521 54.1521L67.9883 56.3418L68.9039 57.8812L72.1455 56.7154C72.8894 57.5152 73.8536 58.1069 74.9422 58.3931L75.5569 61.8086H77.3147L77.8584 58.4111C79.0509 58.1137 80.0978 57.4506 80.8753 56.5483L84.191 57.5295L84.9805 55.9589Z" stroke="white" stroke-width="1.5" stroke-miterlimit="10" stroke-linecap="round" stroke-linejoin="round"/>
<path d="M93.1081 61.8086C94.8311 59.1532 95.8203 56.0522 95.8203 52.7398C95.8203 42.9165 87.1196 34.9531 76.3867 34.9531C65.6539 34.9531 56.9531 42.9165 56.9531 52.7398C56.9531 56.8613 58.4853 60.655 61.0562 63.6709L56.9531 73.8203L68.1863 68.8686C70.678 69.9317 73.4563 70.5265 76.3867 70.5265C79.8028 70.5265 83.013 69.7198 85.8023 68.3031" stroke="white" stroke-width="1.5" stroke-miterlimit="10" stroke-linecap="round" stroke-linejoin="round"/>
<path d="M96.1133 52.3654C100.293 54.9121 103.047 59.2635 103.047 64.2036C103.047 67.4968 101.823 70.5279 99.7687 72.9376L103.047 81.0469L94.0717 77.0904C92.0809 77.9398 89.8609 78.4151 87.5195 78.4151" stroke="white" stroke-width="1.5" stroke-miterlimit="10" stroke-linecap="round" stroke-linejoin="round"/>
<path d="M87.5196 78.4102C81.3736 78.4102 76.0616 75.1426 73.545 70.4023" stroke="white" stroke-width="1.5" stroke-miterlimit="10" stroke-linecap="round" stroke-linejoin="round"/>
</g>
<path d="M18.1163 100.416C18.1163 99.328 18.3669 98.352 18.8683 97.488C19.3803 96.624 20.0683 95.952 20.9323 95.472C21.8069 94.9813 22.7616 94.736 23.7963 94.736C24.9803 94.736 26.0309 95.0293 26.9483 95.616C27.8763 96.192 28.5483 97.0133 28.9643 98.08H26.7723C26.4843 97.4933 26.0843 97.056 25.5723 96.768C25.0603 96.48 24.4683 96.336 23.7963 96.336C23.0603 96.336 22.4043 96.5013 21.8283 96.832C21.2523 97.1627 20.7989 97.6373 20.4683 98.256C20.1483 98.8747 19.9883 99.5947 19.9883 100.416C19.9883 101.237 20.1483 101.957 20.4683 102.576C20.7989 103.195 21.2523 103.675 21.8283 104.016C22.4043 104.347 23.0603 104.512 23.7963 104.512C24.4683 104.512 25.0603 104.368 25.5723 104.08C26.0843 103.792 26.4843 103.355 26.7723 102.768H28.9643C28.5483 103.835 27.8763 104.656 26.9483 105.232C26.0309 105.808 24.9803 106.096 23.7963 106.096C22.7509 106.096 21.7963 105.856 20.9323 105.376C20.0683 104.885 19.3803 104.208 18.8683 103.344C18.3669 102.48 18.1163 101.504 18.1163 100.416ZM34.6033 106.144C33.7713 106.144 33.0193 105.957 32.3473 105.584C31.6753 105.2 31.1473 104.667 30.7633 103.984C30.3793 103.291 30.1873 102.491 30.1873 101.584C30.1873 100.688 30.3846 99.8933 30.7793 99.2C31.1739 98.5067 31.7126 97.9733 32.3953 97.6C33.0779 97.2267 33.8406 97.04 34.6833 97.04C35.5259 97.04 36.2886 97.2267 36.9713 97.6C37.6539 97.9733 38.1926 98.5067 38.5873 99.2C38.9819 99.8933 39.1793 100.688 39.1793 101.584C39.1793 102.48 38.9766 103.275 38.5713 103.968C38.1659 104.661 37.6113 105.2 36.9073 105.584C36.2139 105.957 35.4459 106.144 34.6033 106.144ZM34.6033 104.56C35.0726 104.56 35.5099 104.448 35.9153 104.224C36.3313 104 36.6673 103.664 36.9233 103.216C37.1793 102.768 37.3073 102.224 37.3073 101.584C37.3073 100.944 37.1846 100.405 36.9393 99.968C36.6939 99.52 36.3686 99.184 35.9633 98.96C35.5579 98.736 35.1206 98.624 34.6513 98.624C34.1819 98.624 33.7446 98.736 33.3393 98.96C32.9446 99.184 32.6299 99.52 32.3953 99.968C32.1606 100.405 32.0433 100.944 32.0433 101.584C32.0433 102.533 32.2833 103.269 32.7633 103.792C33.2539 104.304 33.8673 104.56 34.6033 104.56ZM51.3344 97.04C52.0277 97.04 52.6464 97.184 53.1904 97.472C53.7451 97.76 54.1771 98.1867 54.4864 98.752C54.8064 99.3173 54.9664 100 54.9664 100.8V106H53.1584V101.072C53.1584 100.283 52.9611 99.68 52.5664 99.264C52.1717 98.8373 51.6331 98.624 50.9504 98.624C50.2677 98.624 49.7237 98.8373 49.3184 99.264C48.9237 99.68 48.7264 100.283 48.7264 101.072V106H46.9184V101.072C46.9184 100.283 46.7211 99.68 46.3264 99.264C45.9317 98.8373 45.3931 98.624 44.7104 98.624C44.0277 98.624 43.4837 98.8373 43.0784 99.264C42.6837 99.68 42.4864 100.283 42.4864 101.072V106H40.6624V97.184H42.4864V98.192C42.7851 97.8293 43.1637 97.5467 43.6224 97.344C44.0811 97.1413 44.5717 97.04 45.0944 97.04C45.7984 97.04 46.4277 97.1893 46.9824 97.488C47.5371 97.7867 47.9637 98.2187 48.2624 98.784C48.5291 98.2507 48.9451 97.8293 49.5104 97.52C50.0757 97.2 50.6837 97.04 51.3344 97.04ZM58.7914 98.48C59.1007 98.0747 59.5221 97.7333 60.0554 97.456C60.5887 97.1787 61.1914 97.04 61.8634 97.04C62.6314 97.04 63.3301 97.232 63.9594 97.616C64.5994 97.9893 65.1007 98.5173 65.4634 99.2C65.8261 99.8827 66.0074 100.667 66.0074 101.552C66.0074 102.437 65.8261 103.232 65.4634 103.936C65.1007 104.629 64.5994 105.173 63.9594 105.568C63.3301 105.952 62.6314 106.144 61.8634 106.144C61.1914 106.144 60.5941 106.011 60.0714 105.744C59.5487 105.467 59.1221 105.125 58.7914 104.72V110.192H56.9674V97.184H58.7914V98.48ZM64.1514 101.552C64.1514 100.944 64.0234 100.421 63.7674 99.984C63.5221 99.536 63.1914 99.2 62.7754 98.976C62.3701 98.7413 61.9327 98.624 61.4634 98.624C61.0047 98.624 60.5674 98.7413 60.1514 98.976C59.7461 99.2107 59.4154 99.552 59.1594 100C58.9141 100.448 58.7914 100.976 58.7914 101.584C58.7914 102.192 58.9141 102.725 59.1594 103.184C59.4154 103.632 59.7461 103.973 60.1514 104.208C60.5674 104.443 61.0047 104.56 61.4634 104.56C61.9327 104.56 62.3701 104.443 62.7754 104.208C63.1914 103.963 63.5221 103.611 63.7674 103.152C64.0234 102.693 64.1514 102.16 64.1514 101.552ZM69.3151 98.464C69.5818 98.016 69.9338 97.6693 70.3711 97.424C70.8191 97.168 71.3471 97.04 71.9551 97.04V98.928H71.4911C70.7765 98.928 70.2325 99.1093 69.8591 99.472C69.4965 99.8347 69.3151 100.464 69.3151 101.36V106H67.4911V97.184H69.3151V98.464ZM81.3918 101.376C81.3918 101.707 81.3704 102.005 81.3278 102.272H74.5918C74.6451 102.976 74.9064 103.541 75.3758 103.968C75.8451 104.395 76.4211 104.608 77.1038 104.608C78.0851 104.608 78.7784 104.197 79.1838 103.376H81.1518C80.8851 104.187 80.3998 104.853 79.6958 105.376C79.0024 105.888 78.1384 106.144 77.1038 106.144C76.2611 106.144 75.5038 105.957 74.8318 105.584C74.1704 105.2 73.6478 104.667 73.2638 103.984C72.8904 103.291 72.7038 102.491 72.7038 101.584C72.7038 100.677 72.8851 99.8827 73.2478 99.2C73.6211 98.5067 74.1384 97.9733 74.7998 97.6C75.4718 97.2267 76.2398 97.04 77.1038 97.04C77.9358 97.04 78.6771 97.2213 79.3278 97.584C79.9784 97.9467 80.4851 98.4587 80.8478 99.12C81.2104 99.7707 81.3918 100.523 81.3918 101.376ZM79.4878 100.8C79.4771 100.128 79.2371 99.5893 78.7678 99.184C78.2984 98.7787 77.7171 98.576 77.0238 98.576C76.3944 98.576 75.8558 98.7787 75.4078 99.184C74.9598 99.5787 74.6931 100.117 74.6078 100.8H79.4878ZM87.4268 97.04C88.0988 97.04 88.6961 97.184 89.2188 97.472C89.7521 97.76 90.1681 98.1867 90.4668 98.752C90.7761 99.3173 90.9308 100 90.9308 100.8V106H89.1228V101.072C89.1228 100.283 88.9254 99.68 88.5308 99.264C88.1361 98.8373 87.5974 98.624 86.9148 98.624C86.2321 98.624 85.6881 98.8373 85.2828 99.264C84.8881 99.68 84.6908 100.283 84.6908 101.072V106H82.8668V94.16H84.6908V98.208C85.0001 97.8347 85.3894 97.5467 85.8588 97.344C86.3388 97.1413 86.8614 97.04 87.4268 97.04ZM101.017 101.376C101.017 101.707 100.996 102.005 100.953 102.272H94.2174C94.2707 102.976 94.5321 103.541 95.0014 103.968C95.4707 104.395 96.0467 104.608 96.7294 104.608C97.7107 104.608 98.4041 104.197 98.8094 103.376H100.777C100.511 104.187 100.025 104.853 99.3214 105.376C98.6281 105.888 97.7641 106.144 96.7294 106.144C95.8867 106.144 95.1294 105.957 94.4574 105.584C93.7961 105.2 93.2734 104.667 92.8894 103.984C92.5161 103.291 92.3294 102.491 92.3294 101.584C92.3294 100.677 92.5107 99.8827 92.8734 99.2C93.2467 98.5067 93.7641 97.9733 94.4254 97.6C95.0974 97.2267 95.8654 97.04 96.7294 97.04C97.5614 97.04 98.3027 97.2213 98.9534 97.584C99.6041 97.9467 100.111 98.4587 100.473 99.12C100.836 99.7707 101.017 100.523 101.017 101.376ZM99.1134 100.8C99.1027 100.128 98.8627 99.5893 98.3934 99.184C97.9241 98.7787 97.3427 98.576 96.6494 98.576C96.0201 98.576 95.4814 98.7787 95.0334 99.184C94.5854 99.5787 94.3187 100.117 94.2334 100.8H99.1134ZM106.94 97.04C107.634 97.04 108.252 97.184 108.796 97.472C109.351 97.76 109.783 98.1867 110.092 98.752C110.402 99.3173 110.556 100 110.556 100.8V106H108.748V101.072C108.748 100.283 108.551 99.68 108.156 99.264C107.762 98.8373 107.223 98.624 106.54 98.624C105.858 98.624 105.314 98.8373 104.908 99.264C104.514 99.68 104.316 100.283 104.316 101.072V106H102.492V97.184H104.316V98.192C104.615 97.8293 104.994 97.5467 105.452 97.344C105.922 97.1413 106.418 97.04 106.94 97.04ZM115.763 106.144C115.07 106.144 114.446 106.021 113.891 105.776C113.347 105.52 112.915 105.179 112.595 104.752C112.275 104.315 112.104 103.829 112.083 103.296H113.971C114.003 103.669 114.179 103.984 114.499 104.24C114.83 104.485 115.24 104.608 115.731 104.608C116.243 104.608 116.638 104.512 116.915 104.32C117.203 104.117 117.347 103.861 117.347 103.552C117.347 103.221 117.187 102.976 116.867 102.816C116.558 102.656 116.062 102.48 115.379 102.288C114.718 102.107 114.179 101.931 113.763 101.76C113.347 101.589 112.984 101.328 112.675 100.976C112.376 100.624 112.227 100.16 112.227 99.584C112.227 99.1147 112.366 98.688 112.643 98.304C112.92 97.9093 113.315 97.6 113.827 97.376C114.35 97.152 114.947 97.04 115.619 97.04C116.622 97.04 117.427 97.296 118.035 97.808C118.654 98.3093 118.984 98.9973 119.027 99.872H117.203C117.171 99.4773 117.011 99.1627 116.723 98.928C116.435 98.6933 116.046 98.576 115.555 98.576C115.075 98.576 114.707 98.6667 114.451 98.848C114.195 99.0293 114.067 99.2693 114.067 99.568C114.067 99.8027 114.152 100 114.323 100.16C114.494 100.32 114.702 100.448 114.947 100.544C115.192 100.629 115.555 100.741 116.035 100.88C116.675 101.051 117.198 101.227 117.603 101.408C118.019 101.579 118.376 101.835 118.675 102.176C118.974 102.517 119.128 102.971 119.139 103.536C119.139 104.037 119 104.485 118.723 104.88C118.446 105.275 118.051 105.584 117.539 105.808C117.038 106.032 116.446 106.144 115.763 106.144ZM121.718 96.016C121.387 96.016 121.11 95.904 120.886 95.68C120.662 95.456 120.55 95.1787 120.55 94.848C120.55 94.5173 120.662 94.24 120.886 94.016C121.11 93.792 121.387 93.68 121.718 93.68C122.038 93.68 122.31 93.792 122.534 94.016C122.758 94.24 122.87 94.5173 122.87 94.848C122.87 95.1787 122.758 95.456 122.534 95.68C122.31 95.904 122.038 96.016 121.718 96.016ZM122.614 97.184V106H120.79V97.184H122.614ZM128.097 104.368L130.593 97.184H132.529L129.169 106H126.993L123.649 97.184H125.601L128.097 104.368ZM141.667 101.376C141.667 101.707 141.646 102.005 141.603 102.272H134.867C134.921 102.976 135.182 103.541 135.651 103.968C136.121 104.395 136.697 104.608 137.379 104.608C138.361 104.608 139.054 104.197 139.459 103.376H141.427C141.161 104.187 140.675 104.853 139.971 105.376C139.278 105.888 138.414 106.144 137.379 106.144C136.537 106.144 135.779 105.957 135.107 105.584C134.446 105.2 133.923 104.667 133.539 103.984C133.166 103.291 132.979 102.491 132.979 101.584C132.979 100.677 133.161 99.8827 133.523 99.2C133.897 98.5067 134.414 97.9733 135.075 97.6C135.747 97.2267 136.515 97.04 137.379 97.04C138.211 97.04 138.953 97.2213 139.603 97.584C140.254 97.9467 140.761 98.4587 141.123 99.12C141.486 99.7707 141.667 100.523 141.667 101.376ZM139.763 100.8C139.753 100.128 139.513 99.5893 139.043 99.184C138.574 98.7787 137.993 98.576 137.299 98.576C136.67 98.576 136.131 98.7787 135.683 99.184C135.235 99.5787 134.969 100.117 134.883 100.8H139.763ZM53.5417 124.112C52.795 124.112 52.123 123.984 51.5257 123.728C50.9284 123.461 50.459 123.088 50.1177 122.608C49.7764 122.128 49.6057 121.568 49.6057 120.928H51.5577C51.6004 121.408 51.787 121.803 52.1177 122.112C52.459 122.421 52.9337 122.576 53.5417 122.576C54.171 122.576 54.6617 122.427 55.0137 122.128C55.3657 121.819 55.5417 121.424 55.5417 120.944C55.5417 120.571 55.4297 120.267 55.2057 120.032C54.9924 119.797 54.7204 119.616 54.3897 119.488C54.0697 119.36 53.6217 119.221 53.0457 119.072C52.3204 118.88 51.7284 118.688 51.2697 118.496C50.8217 118.293 50.4377 117.984 50.1177 117.568C49.7977 117.152 49.6377 116.597 49.6377 115.904C49.6377 115.264 49.7977 114.704 50.1177 114.224C50.4377 113.744 50.8857 113.376 51.4617 113.12C52.0377 112.864 52.7044 112.736 53.4617 112.736C54.539 112.736 55.419 113.008 56.1017 113.552C56.795 114.085 57.179 114.821 57.2537 115.76H55.2377C55.2057 115.355 55.0137 115.008 54.6617 114.72C54.3097 114.432 53.8457 114.288 53.2697 114.288C52.747 114.288 52.3204 114.421 51.9897 114.688C51.659 114.955 51.4937 115.339 51.4937 115.84C51.4937 116.181 51.595 116.464 51.7977 116.688C52.011 116.901 52.2777 117.072 52.5977 117.2C52.9177 117.328 53.355 117.467 53.9097 117.616C54.6457 117.819 55.243 118.021 55.7017 118.224C56.171 118.427 56.5657 118.741 56.8857 119.168C57.2164 119.584 57.3817 120.144 57.3817 120.848C57.3817 121.413 57.227 121.947 56.9177 122.448C56.619 122.949 56.1764 123.355 55.5897 123.664C55.0137 123.963 54.331 124.112 53.5417 124.112ZM67.198 115.184V124H65.374V122.96C65.086 123.323 64.7073 123.611 64.238 123.824C63.7793 124.027 63.2886 124.128 62.766 124.128C62.0726 124.128 61.4486 123.984 60.894 123.696C60.35 123.408 59.918 122.981 59.598 122.416C59.2886 121.851 59.134 121.168 59.134 120.368V115.184H60.942V120.096C60.942 120.885 61.1393 121.493 61.534 121.92C61.9286 122.336 62.4673 122.544 63.15 122.544C63.8326 122.544 64.3713 122.336 64.766 121.92C65.1713 121.493 65.374 120.885 65.374 120.096V115.184H67.198ZM71.1086 116.48C71.4179 116.075 71.8393 115.733 72.3726 115.456C72.9059 115.179 73.5086 115.04 74.1806 115.04C74.9486 115.04 75.6473 115.232 76.2766 115.616C76.9166 115.989 77.4179 116.517 77.7806 117.2C78.1433 117.883 78.3246 118.667 78.3246 119.552C78.3246 120.437 78.1433 121.232 77.7806 121.936C77.4179 122.629 76.9166 123.173 76.2766 123.568C75.6473 123.952 74.9486 124.144 74.1806 124.144C73.5086 124.144 72.9113 124.011 72.3886 123.744C71.8659 123.467 71.4393 123.125 71.1086 122.72V128.192H69.2846V115.184H71.1086V116.48ZM76.4686 119.552C76.4686 118.944 76.3406 118.421 76.0846 117.984C75.8393 117.536 75.5086 117.2 75.0926 116.976C74.6873 116.741 74.2499 116.624 73.7806 116.624C73.3219 116.624 72.8846 116.741 72.4686 116.976C72.0633 117.211 71.7326 117.552 71.4766 118C71.2313 118.448 71.1086 118.976 71.1086 119.584C71.1086 120.192 71.2313 120.725 71.4766 121.184C71.7326 121.632 72.0633 121.973 72.4686 122.208C72.8846 122.443 73.3219 122.56 73.7806 122.56C74.2499 122.56 74.6873 122.443 75.0926 122.208C75.5086 121.963 75.8393 121.611 76.0846 121.152C76.3406 120.693 76.4686 120.16 76.4686 119.552ZM81.6323 116.48C81.9417 116.075 82.363 115.733 82.8963 115.456C83.4297 115.179 84.0323 115.04 84.7043 115.04C85.4723 115.04 86.171 115.232 86.8003 115.616C87.4403 115.989 87.9417 116.517 88.3043 117.2C88.667 117.883 88.8483 118.667 88.8483 119.552C88.8483 120.437 88.667 121.232 88.3043 121.936C87.9417 122.629 87.4403 123.173 86.8003 123.568C86.171 123.952 85.4723 124.144 84.7043 124.144C84.0323 124.144 83.435 124.011 82.9123 123.744C82.3897 123.467 81.963 123.125 81.6323 122.72V128.192H79.8083V115.184H81.6323V116.48ZM86.9923 119.552C86.9923 118.944 86.8643 118.421 86.6083 117.984C86.363 117.536 86.0323 117.2 85.6163 116.976C85.211 116.741 84.7737 116.624 84.3043 116.624C83.8457 116.624 83.4083 116.741 82.9923 116.976C82.587 117.211 82.2563 117.552 82.0003 118C81.755 118.448 81.6323 118.976 81.6323 119.584C81.6323 120.192 81.755 120.725 82.0003 121.184C82.2563 121.632 82.587 121.973 82.9923 122.208C83.4083 122.443 83.8457 122.56 84.3043 122.56C84.7737 122.56 85.211 122.443 85.6163 122.208C86.0323 121.963 86.363 121.611 86.6083 121.152C86.8643 120.693 86.9923 120.16 86.9923 119.552ZM94.1561 124.144C93.3241 124.144 92.5721 123.957 91.9001 123.584C91.2281 123.2 90.7001 122.667 90.3161 121.984C89.9321 121.291 89.7401 120.491 89.7401 119.584C89.7401 118.688 89.9374 117.893 90.3321 117.2C90.7267 116.507 91.2654 115.973 91.9481 115.6C92.6307 115.227 93.3934 115.04 94.2361 115.04C95.0787 115.04 95.8414 115.227 96.5241 115.6C97.2067 115.973 97.7454 116.507 98.1401 117.2C98.5347 117.893 98.7321 118.688 98.7321 119.584C98.7321 120.48 98.5294 121.275 98.1241 121.968C97.7187 122.661 97.1641 123.2 96.4601 123.584C95.7667 123.957 94.9987 124.144 94.1561 124.144ZM94.1561 122.56C94.6254 122.56 95.0627 122.448 95.4681 122.224C95.8841 122 96.2201 121.664 96.4761 121.216C96.7321 120.768 96.8601 120.224 96.8601 119.584C96.8601 118.944 96.7374 118.405 96.4921 117.968C96.2467 117.52 95.9214 117.184 95.5161 116.96C95.1107 116.736 94.6734 116.624 94.2041 116.624C93.7347 116.624 93.2974 116.736 92.8921 116.96C92.4974 117.184 92.1827 117.52 91.9481 117.968C91.7134 118.405 91.5961 118.944 91.5961 119.584C91.5961 120.533 91.8361 121.269 92.3161 121.792C92.8067 122.304 93.4201 122.56 94.1561 122.56ZM102.039 116.464C102.306 116.016 102.658 115.669 103.095 115.424C103.543 115.168 104.071 115.04 104.679 115.04V116.928H104.215C103.501 116.928 102.957 117.109 102.583 117.472C102.221 117.835 102.039 118.464 102.039 119.36V124H100.215V115.184H102.039V116.464ZM108.164 116.672V121.552C108.164 121.883 108.238 122.123 108.388 122.272C108.548 122.411 108.814 122.48 109.188 122.48H110.308V124H108.868C108.046 124 107.417 123.808 106.98 123.424C106.542 123.04 106.324 122.416 106.324 121.552V116.672H105.284V115.184H106.324V112.992H108.164V115.184H110.308V116.672H108.164Z" fill="white"/>
<defs>
<filter id="filter0_b_1_213" x="-16" y="-16" width="191.333" height="192" filterUnits="userSpaceOnUse" color-interpolation-filters="sRGB">
<feFlood flood-opacity="0" result="BackgroundImageFix"/>
<feGaussianBlur in="BackgroundImageFix" stdDeviation="8"/>
<feComposite in2="SourceAlpha" operator="in" result="effect1_backgroundBlur_1_213"/>
<feBlend mode="normal" in="SourceGraphic" in2="effect1_backgroundBlur_1_213" result="shape"/>
</filter>
</defs>
</svg>
