<svg width="160" height="160" viewBox="0 0 160 160" fill="none" xmlns="http://www.w3.org/2000/svg">
<g filter="url(#filter0_b_1_193)">
<rect x="0.000244141" width="159.333" height="160" rx="79.6667" fill="white" fill-opacity="0.14"/>
</g>
<path d="M63.4745 63.554C63.4745 54.7028 70.7556 47.502 79.7053 47.502C88.655 47.502 95.9362 54.7028 95.9362 63.554M79.7053 35.4526V46.776M83.9389 39.1068L79.7053 34.9531L75.4717 39.1068M100.723 44.6525L92.2 53.0726M101.104 50.197L101.08 44.2992L95.1167 44.2757M58.6877 44.6525L67.2107 53.0726M64.294 44.2758L58.3306 44.2993L58.3069 50.1971M89.244 81.0469C89.244 74.8392 84.9734 70.6155 79.7053 70.6155C74.4373 70.6155 70.1667 74.8392 70.1667 81.0469H79.3853M79.7053 56.5129C75.7733 56.5129 72.5858 59.6653 72.5858 63.554C72.5858 67.4427 75.7733 70.5951 79.7053 70.5951C83.6374 70.5951 86.8249 67.4427 86.8249 63.554C86.8249 59.6653 83.6374 56.5129 79.7053 56.5129Z" stroke="white" stroke-width="1.5" stroke-miterlimit="10" stroke-linecap="round" stroke-linejoin="round"/>
<path d="M45.6652 94.88V101.968C45.6652 102.811 45.8839 103.445 46.3212 103.872C46.7692 104.299 47.3879 104.512 48.1772 104.512C48.9772 104.512 49.5959 104.299 50.0332 103.872C50.4812 103.445 50.7052 102.811 50.7052 101.968V94.88H52.5292V101.936C52.5292 102.843 52.3319 103.611 51.9372 104.24C51.5426 104.869 51.0146 105.339 50.3532 105.648C49.6919 105.957 48.9612 106.112 48.1612 106.112C47.3612 106.112 46.6306 105.957 45.9692 105.648C45.3186 105.339 44.8012 104.869 44.4172 104.24C44.0332 103.611 43.8412 102.843 43.8412 101.936V94.88H45.6652ZM59.0321 97.04C59.7254 97.04 60.3441 97.184 60.8881 97.472C61.4428 97.76 61.8748 98.1867 62.1841 98.752C62.4934 99.3173 62.6481 100 62.6481 100.8V106H60.8401V101.072C60.8401 100.283 60.6428 99.68 60.2481 99.264C59.8534 98.8373 59.3148 98.624 58.6321 98.624C57.9494 98.624 57.4054 98.8373 57.0001 99.264C56.6054 99.68 56.4081 100.283 56.4081 101.072V106H54.5841V97.184H56.4081V98.192C56.7068 97.8293 57.0854 97.5467 57.5441 97.344C58.0134 97.1413 58.5094 97.04 59.0321 97.04ZM66.4787 98.496C66.7881 98.0693 67.2094 97.7227 67.7427 97.456C68.2867 97.1787 68.8894 97.04 69.5507 97.04C70.3294 97.04 71.0334 97.2267 71.6627 97.6C72.2921 97.9733 72.7881 98.5067 73.1507 99.2C73.5134 99.8827 73.6947 100.667 73.6947 101.552C73.6947 102.437 73.5134 103.232 73.1507 103.936C72.7881 104.629 72.2867 105.173 71.6467 105.568C71.0174 105.952 70.3187 106.144 69.5507 106.144C68.8681 106.144 68.2601 106.011 67.7267 105.744C67.2041 105.477 66.7881 105.136 66.4787 104.72V106H64.6547V94.16H66.4787V98.496ZM71.8387 101.552C71.8387 100.944 71.7107 100.421 71.4547 99.984C71.2094 99.536 70.8787 99.2 70.4627 98.976C70.0574 98.7413 69.6201 98.624 69.1507 98.624C68.6921 98.624 68.2547 98.7413 67.8387 98.976C67.4334 99.2107 67.1027 99.552 66.8467 100C66.6014 100.448 66.4787 100.976 66.4787 101.584C66.4787 102.192 66.6014 102.725 66.8467 103.184C67.1027 103.632 67.4334 103.973 67.8387 104.208C68.2547 104.443 68.6921 104.56 69.1507 104.56C69.6201 104.56 70.0574 104.443 70.4627 104.208C70.8787 103.963 71.2094 103.611 71.4547 103.152C71.7107 102.693 71.8387 102.16 71.8387 101.552ZM76.1065 96.016C75.7758 96.016 75.4985 95.904 75.2745 95.68C75.0505 95.456 74.9385 95.1787 74.9385 94.848C74.9385 94.5173 75.0505 94.24 75.2745 94.016C75.4985 93.792 75.7758 93.68 76.1065 93.68C76.4265 93.68 76.6985 93.792 76.9225 94.016C77.1465 94.24 77.2585 94.5173 77.2585 94.848C77.2585 95.1787 77.1465 95.456 76.9225 95.68C76.6985 95.904 76.4265 96.016 76.1065 96.016ZM77.0025 97.184V106H75.1785V97.184H77.0025ZM78.4692 101.552C78.4692 100.667 78.6506 99.8827 79.0132 99.2C79.3866 98.5173 79.8879 97.9893 80.5172 97.616C81.1572 97.232 81.8612 97.04 82.6292 97.04C83.3226 97.04 83.9252 97.1787 84.4372 97.456C84.9599 97.7227 85.3759 98.0587 85.6852 98.464V97.184H87.5252V106H85.6852V104.688C85.3759 105.104 84.9546 105.451 84.4212 105.728C83.8879 106.005 83.2799 106.144 82.5972 106.144C81.8399 106.144 81.1466 105.952 80.5172 105.568C79.8879 105.173 79.3866 104.629 79.0132 103.936C78.6506 103.232 78.4692 102.437 78.4692 101.552ZM85.6852 101.584C85.6852 100.976 85.5572 100.448 85.3012 100C85.0559 99.552 84.7306 99.2107 84.3252 98.976C83.9199 98.7413 83.4826 98.624 83.0132 98.624C82.5439 98.624 82.1066 98.7413 81.7012 98.976C81.2959 99.2 80.9652 99.536 80.7092 99.984C80.4639 100.421 80.3412 100.944 80.3412 101.552C80.3412 102.16 80.4639 102.693 80.7092 103.152C80.9652 103.611 81.2959 103.963 81.7012 104.208C82.1172 104.443 82.5546 104.56 83.0132 104.56C83.4826 104.56 83.9199 104.443 84.3252 104.208C84.7306 103.973 85.0559 103.632 85.3012 103.184C85.5572 102.725 85.6852 102.192 85.6852 101.584ZM92.801 106.144C92.1076 106.144 91.4836 106.021 90.929 105.776C90.385 105.52 89.953 105.179 89.633 104.752C89.313 104.315 89.1423 103.829 89.121 103.296H91.009C91.041 103.669 91.217 103.984 91.537 104.24C91.8676 104.485 92.2783 104.608 92.769 104.608C93.281 104.608 93.6756 104.512 93.953 104.32C94.241 104.117 94.385 103.861 94.385 103.552C94.385 103.221 94.225 102.976 93.905 102.816C93.5956 102.656 93.0996 102.48 92.417 102.288C91.7556 102.107 91.217 101.931 90.801 101.76C90.385 101.589 90.0223 101.328 89.713 100.976C89.4143 100.624 89.265 100.16 89.265 99.584C89.265 99.1147 89.4036 98.688 89.681 98.304C89.9583 97.9093 90.353 97.6 90.865 97.376C91.3876 97.152 91.985 97.04 92.657 97.04C93.6596 97.04 94.465 97.296 95.073 97.808C95.6916 98.3093 96.0223 98.9973 96.065 99.872H94.241C94.209 99.4773 94.049 99.1627 93.761 98.928C93.473 98.6933 93.0836 98.576 92.593 98.576C92.113 98.576 91.745 98.6667 91.489 98.848C91.233 99.0293 91.105 99.2693 91.105 99.568C91.105 99.8027 91.1903 100 91.361 100.16C91.5316 100.32 91.7396 100.448 91.985 100.544C92.2303 100.629 92.593 100.741 93.073 100.88C93.713 101.051 94.2356 101.227 94.641 101.408C95.057 101.579 95.4143 101.835 95.713 102.176C96.0116 102.517 96.1663 102.971 96.177 103.536C96.177 104.037 96.0383 104.485 95.761 104.88C95.4836 105.275 95.089 105.584 94.577 105.808C94.0756 106.032 93.4836 106.144 92.801 106.144ZM105.908 101.376C105.908 101.707 105.887 102.005 105.844 102.272H99.1078C99.1612 102.976 99.4225 103.541 99.8918 103.968C100.361 104.395 100.937 104.608 101.62 104.608C102.601 104.608 103.295 104.197 103.7 103.376H105.668C105.401 104.187 104.916 104.853 104.212 105.376C103.519 105.888 102.655 106.144 101.62 106.144C100.777 106.144 100.02 105.957 99.3478 105.584C98.6865 105.2 98.1638 104.667 97.7798 103.984C97.4065 103.291 97.2198 102.491 97.2198 101.584C97.2198 100.677 97.4012 99.8827 97.7638 99.2C98.1372 98.5067 98.6545 97.9733 99.3158 97.6C99.9878 97.2267 100.756 97.04 101.62 97.04C102.452 97.04 103.193 97.2213 103.844 97.584C104.495 97.9467 105.001 98.4587 105.364 99.12C105.727 99.7707 105.908 100.523 105.908 101.376ZM104.004 100.8C103.993 100.128 103.753 99.5893 103.284 99.184C102.815 98.7787 102.233 98.576 101.54 98.576C100.911 98.576 100.372 98.7787 99.9238 99.184C99.4758 99.5787 99.2092 100.117 99.1238 100.8H104.004ZM106.775 101.552C106.775 100.667 106.956 99.8827 107.319 99.2C107.692 98.5173 108.194 97.9893 108.823 97.616C109.463 97.232 110.172 97.04 110.951 97.04C111.527 97.04 112.092 97.168 112.647 97.424C113.212 97.6693 113.66 98 113.991 98.416V94.16H115.831V106H113.991V104.672C113.692 105.099 113.276 105.451 112.743 105.728C112.22 106.005 111.618 106.144 110.935 106.144C110.167 106.144 109.463 105.952 108.823 105.568C108.194 105.173 107.692 104.629 107.319 103.936C106.956 103.232 106.775 102.437 106.775 101.552ZM113.991 101.584C113.991 100.976 113.863 100.448 113.607 100C113.362 99.552 113.036 99.2107 112.631 98.976C112.226 98.7413 111.788 98.624 111.319 98.624C110.85 98.624 110.412 98.7413 110.007 98.976C109.602 99.2 109.271 99.536 109.015 99.984C108.77 100.421 108.647 100.944 108.647 101.552C108.647 102.16 108.77 102.693 109.015 103.152C109.271 103.611 109.602 103.963 110.007 104.208C110.423 104.443 110.86 104.56 111.319 104.56C111.788 104.56 112.226 104.443 112.631 104.208C113.036 103.973 113.362 103.632 113.607 103.184C113.863 102.725 113.991 102.192 113.991 101.584ZM49.2318 124.112C48.4852 124.112 47.8132 123.984 47.2158 123.728C46.6185 123.461 46.1492 123.088 45.8078 122.608C45.4665 122.128 45.2958 121.568 45.2958 120.928H47.2478C47.2905 121.408 47.4772 121.803 47.8078 122.112C48.1492 122.421 48.6238 122.576 49.2318 122.576C49.8612 122.576 50.3518 122.427 50.7038 122.128C51.0558 121.819 51.2318 121.424 51.2318 120.944C51.2318 120.571 51.1198 120.267 50.8958 120.032C50.6825 119.797 50.4105 119.616 50.0798 119.488C49.7598 119.36 49.3118 119.221 48.7358 119.072C48.0105 118.88 47.4185 118.688 46.9598 118.496C46.5118 118.293 46.1278 117.984 45.8078 117.568C45.4878 117.152 45.3278 116.597 45.3278 115.904C45.3278 115.264 45.4878 114.704 45.8078 114.224C46.1278 113.744 46.5758 113.376 47.1518 113.12C47.7278 112.864 48.3945 112.736 49.1518 112.736C50.2292 112.736 51.1092 113.008 51.7918 113.552C52.4852 114.085 52.8692 114.821 52.9438 115.76H50.9278C50.8958 115.355 50.7038 115.008 50.3518 114.72C49.9998 114.432 49.5358 114.288 48.9598 114.288C48.4372 114.288 48.0105 114.421 47.6798 114.688C47.3492 114.955 47.1838 115.339 47.1838 115.84C47.1838 116.181 47.2852 116.464 47.4878 116.688C47.7012 116.901 47.9678 117.072 48.2878 117.2C48.6078 117.328 49.0452 117.467 49.5998 117.616C50.3358 117.819 50.9332 118.021 51.3918 118.224C51.8612 118.427 52.2558 118.741 52.5758 119.168C52.9065 119.584 53.0718 120.144 53.0718 120.848C53.0718 121.413 52.9172 121.947 52.6078 122.448C52.3092 122.949 51.8665 123.355 51.2798 123.664C50.7038 123.963 50.0212 124.112 49.2318 124.112ZM59.4641 115.04C60.1361 115.04 60.7334 115.184 61.2561 115.472C61.7894 115.76 62.2054 116.187 62.5041 116.752C62.8134 117.317 62.9681 118 62.9681 118.8V124H61.1601V119.072C61.1601 118.283 60.9628 117.68 60.5681 117.264C60.1734 116.837 59.6348 116.624 58.9521 116.624C58.2694 116.624 57.7254 116.837 57.3201 117.264C56.9254 117.68 56.7281 118.283 56.7281 119.072V124H54.9041V112.16H56.7281V116.208C57.0374 115.835 57.4268 115.547 57.8961 115.344C58.3761 115.141 58.8988 115.04 59.4641 115.04ZM68.7987 124.144C67.9667 124.144 67.2147 123.957 66.5427 123.584C65.8707 123.2 65.3427 122.667 64.9587 121.984C64.5747 121.291 64.3827 120.491 64.3827 119.584C64.3827 118.688 64.5801 117.893 64.9747 117.2C65.3694 116.507 65.9081 115.973 66.5907 115.6C67.2734 115.227 68.0361 115.04 68.8787 115.04C69.7214 115.04 70.4841 115.227 71.1667 115.6C71.8494 115.973 72.3881 116.507 72.7827 117.2C73.1774 117.893 73.3747 118.688 73.3747 119.584C73.3747 120.48 73.1721 121.275 72.7667 121.968C72.3614 122.661 71.8067 123.2 71.1027 123.584C70.4094 123.957 69.6414 124.144 68.7987 124.144ZM68.7987 122.56C69.2681 122.56 69.7054 122.448 70.1107 122.224C70.5267 122 70.8627 121.664 71.1187 121.216C71.3747 120.768 71.5027 120.224 71.5027 119.584C71.5027 118.944 71.3801 118.405 71.1347 117.968C70.8894 117.52 70.5641 117.184 70.1587 116.96C69.7534 116.736 69.3161 116.624 68.8467 116.624C68.3774 116.624 67.9401 116.736 67.5347 116.96C67.1401 117.184 66.8254 117.52 66.5907 117.968C66.3561 118.405 66.2387 118.944 66.2387 119.584C66.2387 120.533 66.4787 121.269 66.9587 121.792C67.4494 122.304 68.0627 122.56 68.7987 122.56ZM76.6818 116.464C76.9485 116.016 77.3005 115.669 77.7378 115.424C78.1858 115.168 78.7138 115.04 79.3218 115.04V116.928H78.8578C78.1432 116.928 77.5992 117.109 77.2258 117.472C76.8632 117.835 76.6818 118.464 76.6818 119.36V124H74.8578V115.184H76.6818V116.464ZM82.8065 116.672V121.552C82.8065 121.883 82.8811 122.123 83.0305 122.272C83.1905 122.411 83.4571 122.48 83.8305 122.48H84.9505V124H83.5105C82.6891 124 82.0598 123.808 81.6225 123.424C81.1851 123.04 80.9665 122.416 80.9665 121.552V116.672H79.9265V115.184H80.9665V112.992H82.8065V115.184H84.9505V116.672H82.8065ZM88.1356 112.16V124H86.3116V112.16H88.1356ZM91.1383 114.016C90.8077 114.016 90.5303 113.904 90.3063 113.68C90.0823 113.456 89.9703 113.179 89.9703 112.848C89.9703 112.517 90.0823 112.24 90.3063 112.016C90.5303 111.792 90.8077 111.68 91.1383 111.68C91.4583 111.68 91.7303 111.792 91.9543 112.016C92.1783 112.24 92.2903 112.517 92.2903 112.848C92.2903 113.179 92.1783 113.456 91.9543 113.68C91.7303 113.904 91.4583 114.016 91.1383 114.016ZM92.0343 115.184V124H90.2103V115.184H92.0343ZM97.3091 124.144C96.6158 124.144 95.9918 124.021 95.4371 123.776C94.8931 123.52 94.4611 123.179 94.1411 122.752C93.8211 122.315 93.6504 121.829 93.6291 121.296H95.5171C95.5491 121.669 95.7251 121.984 96.0451 122.24C96.3758 122.485 96.7864 122.608 97.2771 122.608C97.7891 122.608 98.1838 122.512 98.4611 122.32C98.7491 122.117 98.8931 121.861 98.8931 121.552C98.8931 121.221 98.7331 120.976 98.4131 120.816C98.1038 120.656 97.6078 120.48 96.9251 120.288C96.2638 120.107 95.7251 119.931 95.3091 119.76C94.8931 119.589 94.5304 119.328 94.2211 118.976C93.9224 118.624 93.7731 118.16 93.7731 117.584C93.7731 117.115 93.9118 116.688 94.1891 116.304C94.4664 115.909 94.8611 115.6 95.3731 115.376C95.8958 115.152 96.4931 115.04 97.1651 115.04C98.1678 115.04 98.9731 115.296 99.5811 115.808C100.2 116.309 100.53 116.997 100.573 117.872H98.7491C98.7171 117.477 98.5571 117.163 98.2691 116.928C97.9811 116.693 97.5918 116.576 97.1011 116.576C96.6211 116.576 96.2531 116.667 95.9971 116.848C95.7411 117.029 95.6131 117.269 95.6131 117.568C95.6131 117.803 95.6984 118 95.8691 118.16C96.0398 118.32 96.2478 118.448 96.4931 118.544C96.7384 118.629 97.1011 118.741 97.5811 118.88C98.2211 119.051 98.7438 119.227 99.1491 119.408C99.5651 119.579 99.9224 119.835 100.221 120.176C100.52 120.517 100.674 120.971 100.685 121.536C100.685 122.037 100.546 122.485 100.269 122.88C99.9918 123.275 99.5971 123.584 99.0851 123.808C98.5838 124.032 97.9918 124.144 97.3091 124.144ZM104.464 116.672V121.552C104.464 121.883 104.539 122.123 104.688 122.272C104.848 122.411 105.115 122.48 105.488 122.48H106.608V124H105.168C104.347 124 103.717 123.808 103.28 123.424C102.843 123.04 102.624 122.416 102.624 121.552V116.672H101.584V115.184H102.624V112.992H104.464V115.184H106.608V116.672H104.464ZM111.169 124.144C110.476 124.144 109.852 124.021 109.297 123.776C108.753 123.52 108.321 123.179 108.001 122.752C107.681 122.315 107.51 121.829 107.489 121.296H109.377C109.409 121.669 109.585 121.984 109.905 122.24C110.236 122.485 110.646 122.608 111.137 122.608C111.649 122.608 112.044 122.512 112.321 122.32C112.609 122.117 112.753 121.861 112.753 121.552C112.753 121.221 112.593 120.976 112.273 120.816C111.964 120.656 111.468 120.48 110.785 120.288C110.124 120.107 109.585 119.931 109.169 119.76C108.753 119.589 108.39 119.328 108.081 118.976C107.782 118.624 107.633 118.16 107.633 117.584C107.633 117.115 107.772 116.688 108.049 116.304C108.326 115.909 108.721 115.6 109.233 115.376C109.756 115.152 110.353 115.04 111.025 115.04C112.028 115.04 112.833 115.296 113.441 115.808C114.06 116.309 114.39 116.997 114.433 117.872H112.609C112.577 117.477 112.417 117.163 112.129 116.928C111.841 116.693 111.452 116.576 110.961 116.576C110.481 116.576 110.113 116.667 109.857 116.848C109.601 117.029 109.473 117.269 109.473 117.568C109.473 117.803 109.558 118 109.729 118.16C109.9 118.32 110.108 118.448 110.353 118.544C110.598 118.629 110.961 118.741 111.441 118.88C112.081 119.051 112.604 119.227 113.009 119.408C113.425 119.579 113.782 119.835 114.081 120.176C114.38 120.517 114.534 120.971 114.545 121.536C114.545 122.037 114.406 122.485 114.129 122.88C113.852 123.275 113.457 123.584 112.945 123.808C112.444 124.032 111.852 124.144 111.169 124.144Z" fill="white"/>
<defs>
<filter id="filter0_b_1_193" x="-15.9998" y="-16" width="191.333" height="192" filterUnits="userSpaceOnUse" color-interpolation-filters="sRGB">
<feFlood flood-opacity="0" result="BackgroundImageFix"/>
<feGaussianBlur in="BackgroundImageFix" stdDeviation="8"/>
<feComposite in2="SourceAlpha" operator="in" result="effect1_backgroundBlur_1_193"/>
<feBlend mode="normal" in="SourceGraphic" in2="effect1_backgroundBlur_1_193" result="shape"/>
</filter>
</defs>
</svg>
