<svg width="31" height="30" viewBox="0 0 31 30" fill="none" xmlns="http://www.w3.org/2000/svg">
<path d="M15.5 9.375C14.3875 9.375 13.2999 9.7049 12.3749 10.323C11.4499 10.9411 10.7289 11.8196 10.3032 12.8474C9.87744 13.8752 9.76604 15.0062 9.98308 16.0974C10.2001 17.1885 10.7359 18.1908 11.5225 18.9775C12.3092 19.7641 13.3115 20.2999 14.4026 20.5169C15.4938 20.734 16.6248 20.6226 17.6526 20.1968C18.6804 19.7711 19.5589 19.0501 20.177 18.1251C20.7951 17.2001 21.125 16.1125 21.125 15C21.1234 13.5086 20.5303 12.0788 19.4758 11.0242C18.4212 9.96968 16.9914 9.37655 15.5 9.375ZM15.5 18.75C14.7583 18.75 14.0333 18.5301 13.4166 18.118C12.7999 17.706 12.3193 17.1203 12.0355 16.4351C11.7516 15.7498 11.6774 14.9958 11.8221 14.2684C11.9667 13.541 12.3239 12.8728 12.8483 12.3483C13.3728 11.8239 14.041 11.4667 14.7684 11.3221C15.4958 11.1774 16.2498 11.2516 16.9351 11.5355C17.6203 11.8193 18.206 12.2999 18.618 12.9166C19.0301 13.5333 19.25 14.2583 19.25 15C19.25 15.9946 18.8549 16.9484 18.1516 17.6516C17.4484 18.3549 16.4946 18.75 15.5 18.75ZM21.125 2.8125H9.875C8.13509 2.81436 6.46697 3.50636 5.23667 4.73667C4.00636 5.96697 3.31436 7.63509 3.3125 9.375V20.625C3.31436 22.3649 4.00636 24.033 5.23667 25.2633C6.46697 26.4936 8.13509 27.1856 9.875 27.1875H21.125C22.8649 27.1856 24.533 26.4936 25.7633 25.2633C26.9936 24.033 27.6856 22.3649 27.6875 20.625V9.375C27.6856 7.63509 26.9936 5.96697 25.7633 4.73667C24.533 3.50636 22.8649 2.81436 21.125 2.8125ZM25.8125 20.625C25.8125 21.8682 25.3186 23.0605 24.4396 23.9396C23.5605 24.8186 22.3682 25.3125 21.125 25.3125H9.875C8.6318 25.3125 7.43951 24.8186 6.56044 23.9396C5.68136 23.0605 5.1875 21.8682 5.1875 20.625V9.375C5.1875 8.1318 5.68136 6.93951 6.56044 6.06044C7.43951 5.18136 8.6318 4.6875 9.875 4.6875H21.125C22.3682 4.6875 23.5605 5.18136 24.4396 6.06044C25.3186 6.93951 25.8125 8.1318 25.8125 9.375V20.625ZM23 8.90625C23 9.18438 22.9175 9.45626 22.763 9.68752C22.6085 9.91878 22.3889 10.099 22.1319 10.2055C21.8749 10.3119 21.5922 10.3397 21.3194 10.2855C21.0466 10.2312 20.796 10.0973 20.5994 9.90062C20.4027 9.70395 20.2688 9.45338 20.2145 9.1806C20.1603 8.90781 20.1881 8.62506 20.2945 8.3681C20.401 8.11114 20.5812 7.89152 20.8125 7.737C21.0437 7.58247 21.3156 7.5 21.5938 7.5C21.9667 7.5 22.3244 7.64816 22.5881 7.91188C22.8518 8.1756 23 8.53329 23 8.90625Z" fill="white"/>
</svg>
