<svg width="424" height="424" viewBox="0 0 424 424" fill="none" xmlns="http://www.w3.org/2000/svg">
<path d="M345.023 137.689C314.877 156.595 274.796 189.159 253.223 235.645C275.678 235.088 297.297 234.095 317.227 229.858C334.538 226.178 350.089 220.135 363.283 210.053C363.174 185.412 357.202 160.548 345.023 137.689Z" fill="#08ADEE"/>
<path d="M361.094 236.79C348.801 243.401 335.545 247.749 321.886 250.651C296.732 255.996 269.408 256.571 243.567 257.115L243.537 257.116C241.567 257.158 239.606 257.199 237.655 257.242C179.759 258.525 129.879 290.06 99.7369 315.132C109.668 325.519 120.782 334.285 132.701 341.367C150.245 325.127 180.631 304.707 217.438 299.375C232.623 297.175 246.6 296.754 259.585 296.646C262.589 296.62 265.514 296.611 268.379 296.602L268.391 296.602C278.098 296.572 287.111 296.544 296.143 295.901C312.569 294.733 328.532 291.548 345.717 282.343C353.241 268.022 358.399 252.629 361.094 236.79Z" fill="#08ADEE"/>
<path d="M324.37 313.184C315.517 315.311 306.787 316.47 298.058 317.098C288.225 317.806 278.24 317.844 268.387 317.882C265.619 317.893 262.862 317.903 260.121 317.929C247.421 318.046 234.544 318.469 220.749 320.479C192.855 324.541 168.869 338.989 153.276 351.797C200.724 371.097 256.44 366.409 300.647 334.437C309.447 328.072 317.363 320.936 324.37 313.184Z" fill="#08ADEE"/>
<path d="M78.6748 286.009C108.822 267.103 148.903 234.539 170.476 188.053C148.02 188.61 126.401 189.603 106.471 193.841C89.1599 197.521 73.6092 203.564 60.4153 213.646C60.5237 238.286 66.4958 263.15 78.6748 286.009Z" fill="#08ADEE"/>
<path d="M62.6041 186.909C74.8973 180.298 88.1532 175.95 101.812 173.048C126.966 167.703 154.29 167.128 180.131 166.584L180.162 166.584C182.131 166.542 184.092 166.501 186.043 166.457C243.939 165.174 293.819 133.639 323.961 108.568C314.031 98.1806 302.916 89.4145 290.998 82.3326C273.453 98.5719 243.067 118.992 206.261 124.324C191.075 126.525 177.098 126.945 164.113 127.054C161.109 127.079 158.184 127.088 155.319 127.097L155.307 127.097C145.6 127.127 136.587 127.155 127.555 127.798C111.129 128.967 95.1665 132.151 77.981 141.356C70.4572 155.677 65.2991 171.07 62.6041 186.909Z" fill="#08ADEE"/>
<path d="M99.3278 110.515C108.181 108.388 116.911 107.229 125.64 106.601C135.473 105.893 145.458 105.855 155.312 105.817C158.079 105.807 160.836 105.796 163.577 105.771C176.277 105.653 189.155 105.23 202.949 103.221C230.843 99.1582 254.829 84.7099 270.422 71.9022C222.974 52.6021 167.258 57.2907 123.052 89.2624C114.251 95.627 106.336 102.763 99.3278 110.515Z" fill="#08ADEE"/>
</svg>
