<svg width="30" height="30" viewBox="0 0 30 30" fill="none" xmlns="http://www.w3.org/2000/svg">
<path d="M25.1658 24.8098L17.8298 13.2809L25.0685 5.31797C25.2322 5.13343 25.3166 4.89179 25.3033 4.64546C25.2901 4.39912 25.1803 4.16793 24.9977 4.00202C24.8151 3.83611 24.5745 3.74884 24.3281 3.75914C24.0816 3.76943 23.8491 3.87647 23.681 4.05703L16.7857 11.6414L12.0408 4.18477C11.9562 4.05159 11.8393 3.94192 11.701 3.86592C11.5627 3.78992 11.4075 3.75005 11.2497 3.75H5.62475C5.45665 3.74992 5.29163 3.79503 5.14696 3.88062C5.00229 3.9662 4.88328 4.08911 4.80242 4.23647C4.72155 4.38383 4.68179 4.55023 4.6873 4.71823C4.6928 4.88623 4.74338 5.04966 4.83373 5.19141L12.1697 16.7191L4.931 24.6879C4.84647 24.7787 4.7808 24.8854 4.7378 25.0017C4.6948 25.1181 4.67533 25.2419 4.6805 25.3658C4.68568 25.4898 4.71541 25.6115 4.76797 25.7238C4.82052 25.8362 4.89486 25.937 4.98667 26.0205C5.07848 26.1039 5.18594 26.1683 5.30282 26.2099C5.4197 26.2515 5.54367 26.2695 5.66755 26.2628C5.79143 26.2562 5.91276 26.225 6.0245 26.1711C6.13624 26.1172 6.23617 26.0416 6.3185 25.9488L13.2138 18.3645L17.9587 25.8211C18.044 25.9532 18.1612 26.0617 18.2994 26.1367C18.4376 26.2116 18.5925 26.2506 18.7497 26.25H24.3747C24.5427 26.25 24.7075 26.2048 24.852 26.1193C24.9965 26.0338 25.1153 25.911 25.1962 25.7638C25.277 25.6166 25.3168 25.4505 25.3115 25.2826C25.3061 25.1148 25.2558 24.9515 25.1658 24.8098ZM19.2642 24.375L7.33217 5.625H10.7306L22.6673 24.375H19.2642Z" fill="white"/>
</svg>
