<svg width="30" height="30" viewBox="0 0 30 30" fill="none" xmlns="http://www.w3.org/2000/svg">
<path d="M19.2703 14.2195L13.6453 10.4695C13.5041 10.3753 13.3399 10.3212 13.1704 10.313C13.0008 10.3048 12.8322 10.3428 12.6825 10.4229C12.5328 10.503 12.4077 10.6223 12.3206 10.768C12.2334 10.9136 12.1874 11.0802 12.1875 11.25V18.75C12.1874 18.9198 12.2334 19.0864 12.3206 19.2321C12.4077 19.3777 12.5328 19.497 12.6825 19.5771C12.8322 19.6572 13.0008 19.6952 13.1704 19.687C13.3399 19.6788 13.5041 19.6247 13.6453 19.5305L19.2703 15.7805C19.3989 15.6949 19.5044 15.5789 19.5773 15.4427C19.6502 15.3065 19.6884 15.1545 19.6884 15C19.6884 14.8455 19.6502 14.6935 19.5773 14.5573C19.5044 14.4211 19.3989 14.3051 19.2703 14.2195ZM14.0625 16.9981V13.0078L17.0602 15L14.0625 16.9981ZM27.4605 8.14688C27.3501 7.71486 27.1386 7.31529 26.8433 6.98114C26.5481 6.64698 26.1776 6.38781 25.7625 6.225C21.7453 4.67344 15.3516 4.6875 15 4.6875C14.6484 4.6875 8.25469 4.67344 4.2375 6.225C3.82238 6.38781 3.45192 6.64698 3.15667 6.98114C2.86143 7.31529 2.64987 7.71486 2.53945 8.14688C2.23594 9.31641 1.875 11.4539 1.875 15C1.875 18.5461 2.23594 20.6836 2.53945 21.8531C2.64971 22.2854 2.86119 22.6852 3.15644 23.0195C3.45169 23.3539 3.82224 23.6133 4.2375 23.7762C8.08594 25.2609 14.1094 25.3125 14.9227 25.3125H15.0773C15.8906 25.3125 21.9176 25.2609 25.7625 23.7762C26.1778 23.6133 26.5483 23.3539 26.8436 23.0195C27.1388 22.6852 27.3503 22.2854 27.4605 21.8531C27.7641 20.6813 28.125 18.5461 28.125 15C28.125 11.4539 27.7641 9.31641 27.4605 8.14688ZM25.6453 21.3891C25.6096 21.5328 25.5403 21.6661 25.4432 21.7779C25.346 21.8898 25.2237 21.977 25.0863 22.0324C21.3773 23.4645 15.0691 23.4387 15.0082 23.4387H15C14.9367 23.4387 8.6332 23.4621 4.92188 22.0324C4.7845 21.977 4.66221 21.8898 4.56505 21.7779C4.46788 21.6661 4.3986 21.5328 4.36289 21.3891C4.07812 20.3191 3.75 18.3481 3.75 15C3.75 11.652 4.07812 9.68086 4.35469 8.6168C4.38974 8.47217 4.45872 8.33796 4.55592 8.22527C4.65312 8.11258 4.77575 8.02465 4.91367 7.96875C8.49023 6.58711 14.4832 6.5625 14.9742 6.5625H15.0059C15.0691 6.5625 21.3785 6.54141 25.084 7.96875C25.2214 8.0242 25.3436 8.11141 25.4408 8.22324C25.538 8.33507 25.6073 8.46834 25.643 8.61211C25.9219 9.68086 26.25 11.652 26.25 15C26.25 18.3481 25.9219 20.3191 25.6453 21.3832V21.3891Z" fill="white"/>
</svg>
